<svg xmlns="http://www.w3.org/2000/svg" x="0px" y="0px" width="50" height="50" viewBox="0 0 100 100" style=" fill:#000000;"><path fill="#fff" d="M19.785 38.211h-5.007c-.276 0-.5-.224-.5-.5s.224-.5.5-.5h5.007c.276 0 .5.224.5.5S20.061 38.211 19.785 38.211zM19.785 36.354h-1.252c-.276 0-.5-.224-.5-.5s.224-.5.5-.5h1.252c.276 0 .5.224.5.5S20.061 36.354 19.785 36.354zM16.53 43.783h-1.752c-.276 0-.5-.224-.5-.5s.224-.5.5-.5h1.752c.276 0 .5.224.5.5S16.806 43.783 16.53 43.783z"></path><path fill="#c8ede6" d="M87.234,55.551c0.3-0.616,0.566-1.264,0.796-1.943c2.633-7.77-1.349-17.078-9.733-19.325 C77.391,22.9,69.391,15.09,60.356,13.758c-10.341-1.525-19.814,5.044-22.966,15.485c-3.799-1.346-7.501-1.182-10.99,0.857 c-1.583,0.732-3.031,1.812-4.33,3.233c-1.907,2.086-3.147,4.719-3.652,7.495c-0.748,0.118-1.483,0.236-2.176,0.484 c-4.04,1.449-6.589,4.431-7.288,8.923c-0.435,2.797,0.443,5.587,0.933,6.714c1.935,4.455,6.422,6.98,10.981,6.312 c0.227-0.033,0.557,0.069,0.752,0.233c0.241,7.12,3.698,13.417,8.884,17.014c8.321,5.772,19.027,3.994,25.781-3.921 c2.894,2.96,6.338,4.398,10.384,3.876c4.023-0.519,7.147-2.739,9.426-6.349c1.053,0.283,2.051,0.691,3.083,0.804 c4.042,0.442,7.297-1.184,9.732-4.8c0.083-0.124,0.203-0.219,0.306-0.328c0.348-0.798,0.696-1.596,1.044-2.394 c0.155-1.211,0.429-2.423,0.443-3.632C90.742,60.508,89.411,57.54,87.234,55.551z"></path><path fill="#fdfcef" d="M61.674,34.423c0,0-11.691,0-11.762,0c-2.7,0-4.888-2.189-4.888-4.889 c0-2.355,1.666-4.321,3.884-4.784c-0.026-0.206-0.043-0.415-0.043-0.628c0-2.796,2.267-5.063,5.063-5.063 c1.651,0,3.113,0.794,4.037,2.017c0.236-3.113,3.017-5.514,6.27-5.116c2.379,0.291,4.346,2.13,4.784,4.486 c0.14,0.756,0.126,1.489-0.014,2.177c0.638-0.687,1.546-1.119,2.557-1.119c1.85,0,3.361,1.441,3.48,3.261 c0.84-0.186,1.754-0.174,2.717,0.188c1.84,0.691,3.15,2.423,3.227,4.387c0.109,2.789-2.12,5.085-4.885,5.085 c-0.21,0-0.948,0-1.118,0H64.832"></path><path fill="#472b29" d="M49.912,34.923h11.762c0.276,0,0.5-0.224,0.5-0.5s-0.224-0.5-0.5-0.5H49.912 c-2.42,0-4.389-1.969-4.389-4.389c0-2.066,1.466-3.873,3.486-4.295c0.255-0.053,0.426-0.293,0.394-0.552 c-0.023-0.186-0.039-0.374-0.039-0.565c0-2.517,2.047-4.563,4.562-4.563c1.438,0,2.765,0.663,3.638,1.818 c0.125,0.166,0.338,0.237,0.54,0.178c0.199-0.059,0.342-0.234,0.357-0.441c0.104-1.377,0.779-2.671,1.85-3.549 c1.083-0.888,2.456-1.282,3.86-1.109c2.166,0.266,3.956,1.943,4.353,4.081c0.124,0.667,0.12,1.335-0.013,1.986 c-0.044,0.22,0.062,0.442,0.262,0.544c0.2,0.104,0.443,0.06,0.595-0.104c0.575-0.618,1.353-0.959,2.19-0.959 c1.569,0,2.878,1.228,2.981,2.794c0.01,0.146,0.082,0.279,0.199,0.366c0.117,0.089,0.268,0.12,0.408,0.089 c0.841-0.185,1.637-0.132,2.433,0.167c1.669,0.627,2.835,2.209,2.903,3.938c0.047,1.207-0.387,2.35-1.221,3.218 c-0.835,0.869-1.959,1.348-3.164,1.348H64.828c-0.276,0-0.5,0.224-0.5,0.5s0.224,0.5,0.5,0.5h11.271 c1.479,0,2.858-0.588,3.884-1.654c1.025-1.066,1.558-2.469,1.5-3.95c-0.083-2.126-1.51-4.069-3.55-4.835 c-0.8-0.301-1.626-0.398-2.468-0.299c-0.377-1.822-1.998-3.182-3.905-3.182c-0.684,0-1.354,0.18-1.944,0.51 c0-0.386-0.035-0.772-0.106-1.159c-0.477-2.562-2.621-4.573-5.215-4.891c-1.679-0.205-3.32,0.266-4.616,1.328 c-1.003,0.823-1.716,1.951-2.038,3.193c-1.012-0.916-2.319-1.426-3.714-1.426c-3.067,0-5.562,2.496-5.562,5.563 c0,0.083,0.002,0.166,0.007,0.248c-2.254,0.673-3.848,2.776-3.848,5.164C44.523,32.507,46.94,34.923,49.912,34.923z"></path><path fill="#fdfcef" d="M64.507,23.655c1.808-0.119,3.365,1.13,3.476,2.789c0.014,0.206,0.005,0.409-0.025,0.606 c0.349-0.394,0.865-0.661,1.458-0.7c1.085-0.071,2.022,0.645,2.158,1.62c0.197-0.054,0.403-0.09,0.616-0.104 c1.582-0.104,2.944,0.989,3.042,2.441"></path><path fill="#472b29" d="M75.231,30.556c0.006,0,0.012,0,0.017-0.001c0.138-0.009,0.242-0.128,0.233-0.266 c-0.107-1.587-1.588-2.789-3.308-2.674c-0.137,0.009-0.273,0.026-0.409,0.053c-0.274-0.968-1.256-1.645-2.366-1.567 c-0.425,0.027-0.823,0.159-1.164,0.382c0-0.019-0.002-0.037-0.003-0.056c-0.12-1.795-1.787-3.16-3.742-3.021 c-0.138,0.009-0.242,0.128-0.233,0.266c0.009,0.138,0.124,0.255,0.266,0.232c1.651-0.105,3.108,1.037,3.21,2.557 c0.012,0.184,0.004,0.37-0.023,0.553c-0.017,0.109,0.041,0.217,0.141,0.264s0.219,0.022,0.293-0.061 c0.323-0.365,0.78-0.584,1.287-0.617c0.951-0.034,1.775,0.556,1.894,1.404c0.01,0.071,0.05,0.135,0.11,0.175 c0.06,0.039,0.133,0.051,0.204,0.032c0.187-0.051,0.377-0.083,0.567-0.097c1.44-0.092,2.687,0.896,2.775,2.209 C74.991,30.455,75.101,30.556,75.231,30.556z"></path><path fill="#fdfcef" d="M47.932,25.323c1.699-0.801,3.664-0.234,4.389,1.267c0.09,0.186,0.157,0.379,0.201,0.574"></path><path fill="#472b29" d="M52.522,27.414c0.018,0,0.037-0.002,0.056-0.006c0.134-0.031,0.219-0.165,0.188-0.3 c-0.049-0.217-0.123-0.428-0.219-0.627c-0.783-1.621-2.902-2.239-4.721-1.385c-0.125,0.06-0.179,0.208-0.12,0.333 c0.059,0.126,0.209,0.176,0.333,0.12c1.574-0.744,3.394-0.227,4.058,1.149c0.08,0.165,0.141,0.34,0.182,0.521 C52.305,27.336,52.408,27.414,52.522,27.414z"></path><path fill="#fff" d="M14.899 55H4.869c-.276 0-.5-.224-.5-.5s.224-.5.5-.5h10.03c.276 0 .5.224.5.5S15.176 55 14.899 55zM18.28 54.5c0-.276-.224-.5-.5-.5h-1.446c-.276 0-.5.224-.5.5s.224.5.5.5h1.446C18.057 55 18.28 54.776 18.28 54.5zM22.335 54.5c0-.276-.224-.5-.5-.5h-2.546c-.276 0-.5.224-.5.5s.224.5.5.5h2.546C22.112 55 22.335 54.776 22.335 54.5zM22.335 56.5c0-.276-.224-.5-.5-.5h-9.616c-.276 0-.5.224-.5.5s.224.5.5.5h9.616C22.112 57 22.335 56.776 22.335 56.5zM10.987 56.5c0-.276-.224-.5-.5-.5h-.58c-.276 0-.5.224-.5.5s.224.5.5.5h.58C10.763 57 10.987 56.776 10.987 56.5zM8.611 56.5c0-.276-.224-.5-.5-.5H6.654c-.276 0-.5.224-.5.5s.224.5.5.5h1.457C8.387 57 8.611 56.776 8.611 56.5zM17.746 52.5c0-.276-.224-.5-.5-.5h-5.027c-.276 0-.5.224-.5.5s.224.5.5.5h5.027C17.523 53 17.746 52.776 17.746 52.5zM17.746 50.5c0-.276-.224-.5-.5-.5h-1.257c-.276 0-.5.224-.5.5s.224.5.5.5h1.257C17.523 51 17.746 50.776 17.746 50.5zM14.477 58.5c0-.276-.224-.5-.5-.5h-1.758c-.276 0-.5.224-.5.5s.224.5.5.5h1.758C14.254 59 14.477 58.776 14.477 58.5zM84.744 44h-10.03c-.276 0-.5-.224-.5-.5s.224-.5.5-.5h10.031c.276 0 .5.224.5.5S85.021 44 84.744 44zM88.125 43.5c0-.276-.224-.5-.5-.5h-1.446c-.276 0-.5.224-.5.5s.224.5.5.5h1.446C87.902 44 88.125 43.776 88.125 43.5zM92.18 43.5c0-.276-.224-.5-.5-.5h-2.546c-.276 0-.5.224-.5.5s.224.5.5.5h2.546C91.956 44 92.18 43.776 92.18 43.5zM90.154 39.5c0-.276-.224-.5-.5-.5h-9.616c-.276 0-.5.224-.5.5s.224.5.5.5h9.616C89.93 40 90.154 39.776 90.154 39.5zM78.806 39.5c0-.276-.224-.5-.5-.5h-.58c-.276 0-.5.224-.5.5s.224.5.5.5h.58C78.583 40 78.806 39.776 78.806 39.5zM76.429 39.5c0-.276-.224-.5-.5-.5h-1.456c-.276 0-.5.224-.5.5s.224.5.5.5h1.456C76.206 40 76.429 39.776 76.429 39.5zM87.591 41.5c0-.276-.224-.5-.5-.5h-5.027c-.276 0-.5.224-.5.5s.224.5.5.5h5.027C87.367 42 87.591 41.776 87.591 41.5zM87.591 39.5c0-.276-.224-.5-.5-.5h-1.257c-.276 0-.5.224-.5.5s.224.5.5.5h1.257C87.367 40 87.591 39.776 87.591 39.5zM81.108 41.5c0-.276-.224-.5-.5-.5H78.85c-.276 0-.5.224-.5.5s.224.5.5.5h1.758C80.885 42 81.108 41.776 81.108 41.5z"></path><path fill="#fdfcef" d="M30.178,79.287c1.883,0,3.517,0,3.54,0c2.11,0,3.821-1.674,3.821-3.739 c0-1.802-1.302-3.305-3.035-3.66c0.02-0.158,0.034-0.317,0.034-0.48c0-2.139-1.772-3.873-3.957-3.873 c-1.29,0-2.433,0.607-3.155,1.543c-0.185-2.381-2.358-4.218-4.9-3.913c-1.859,0.223-3.397,1.629-3.739,3.431 c-0.11,0.578-0.098,1.139,0.011,1.665c-0.498-0.525-1.208-0.856-1.998-0.856c-1.446,0-2.627,1.102-2.72,2.494 c-0.657-0.142-1.371-0.133-2.123,0.143c-1.438,0.528-2.462,1.853-2.522,3.356c-0.085,2.133,1.657,3.889,3.818,3.889 c0.164,0,0.741,0,0.874,0h7.934 M23.701,79.287h0.36"></path><path fill="#472b29" d="M33.718,79.788h-3.54c-0.276,0-0.5-0.224-0.5-0.5s0.224-0.5,0.5-0.5h3.54 c1.831,0,3.321-1.453,3.321-3.239c0-1.524-1.108-2.858-2.636-3.17c-0.256-0.053-0.429-0.294-0.396-0.554 c0.018-0.137,0.03-0.275,0.03-0.417c0-1.86-1.551-3.373-3.457-3.373c-1.092,0-2.098,0.491-2.76,1.349 c-0.126,0.164-0.341,0.231-0.539,0.174c-0.198-0.06-0.339-0.234-0.355-0.44c-0.079-1.02-0.565-1.944-1.369-2.604 c-0.829-0.68-1.885-0.979-2.973-0.853c-1.646,0.197-3.006,1.442-3.307,3.027c-0.094,0.495-0.091,0.99,0.009,1.472 c0.045,0.219-0.06,0.441-0.258,0.545c-0.197,0.102-0.44,0.063-0.594-0.1c-0.428-0.451-1.009-0.7-1.635-0.7 c-1.169,0-2.145,0.891-2.221,2.027c-0.01,0.146-0.082,0.278-0.198,0.366c-0.116,0.087-0.264,0.12-0.406,0.089 c-0.639-0.138-1.243-0.098-1.846,0.125c-1.262,0.463-2.144,1.631-2.195,2.905c-0.035,0.876,0.283,1.709,0.895,2.346 c0.635,0.66,1.496,1.024,2.423,1.024h8.807c0.276,0,0.5,0.224,0.5,0.5s-0.224,0.5-0.5,0.5h-8.807 c-1.185,0-2.331-0.485-3.144-1.331c-0.803-0.836-1.219-1.929-1.173-3.078c0.067-1.675,1.212-3.204,2.849-3.806 c0.61-0.225,1.24-0.304,1.88-0.244c0.344-1.396,1.629-2.424,3.135-2.424c0.493,0,0.977,0.113,1.414,0.323 c0.009-0.242,0.037-0.484,0.083-0.727c0.381-2.009,2.096-3.585,4.17-3.833c1.365-0.167,2.685,0.218,3.726,1.071 c0.748,0.613,1.278,1.409,1.546,2.302c0.791-0.648,1.786-1.007,2.842-1.007c2.458,0,4.457,1.962,4.457,4.373 c0,0.034,0,0.068-0.001,0.103c1.764,0.555,3.003,2.188,3.003,4.038C38.039,77.886,36.101,79.788,33.718,79.788z M24.061,79.788 h-0.36c-0.276,0-0.5-0.224-0.5-0.5s0.224-0.5,0.5-0.5h0.36c0.276,0,0.5,0.224,0.5,0.5S24.337,79.788,24.061,79.788z"></path><path fill="#472b29" d="M32.011 73.984c-.018 0-.036-.002-.055-.006-.135-.03-.22-.164-.189-.299.037-.164.094-.325.17-.479.604-1.224 2.272-1.677 3.722-1.007.125.058.18.206.122.331-.058.126-.207.179-.332.122-1.201-.556-2.577-.208-3.063.774-.058.118-.102.242-.13.367C32.229 73.905 32.126 73.984 32.011 73.984zM26.852 79.788h-1.107c-.276 0-.5-.224-.5-.5s.224-.5.5-.5h1.107c.276 0 .5.224.5.5S27.129 79.788 26.852 79.788z"></path><path fill="#afabd4" d="M39.765,65.716c-1.494-0.396-2.929-0.98-4.28-1.744c0.732-2.13,0.297-4.047-1.274-5.575 c-1.028-1.001-2.216-1.509-3.529-1.509c-0.64,0-1.31,0.123-1.997,0.367c-0.782-1.34-1.383-2.762-1.794-4.241 c2.082-1.001,3.15-2.692,3.097-4.922c-0.051-2.14-1.142-3.745-3.164-4.675c0.392-1.49,0.974-2.922,1.734-4.271 c0.713,0.262,1.407,0.394,2.068,0.394c1.35,0,2.564-0.538,3.608-1.602c1.544-1.568,1.924-3.51,1.114-5.644 c1.319-0.765,2.747-1.362,4.257-1.782c0.965,2.093,2.607,3.193,4.782,3.193c0.163,0,0.33-0.006,0.5-0.019 c2.028-0.149,3.536-1.251,4.392-3.197c1.486,0.398,2.917,0.989,4.268,1.761c-0.801,2.168-0.398,4.122,1.182,5.682 c1.039,1.025,2.237,1.546,3.56,1.546c0.674,0,1.377-0.139,2.096-0.412c0.598,0.988,1.459,3.083,1.75,4.259 c-2.105,0.996-3.189,2.691-3.143,4.935c0.044,2.113,1.117,3.716,3.112,4.667c-0.404,1.48-0.999,2.906-1.773,4.251 c-0.688-0.234-1.355-0.353-1.988-0.353c-1.495,0-2.803,0.641-3.888,1.904c-1.265,1.476-1.568,3.262-0.889,5.197 c-1.341,0.768-2.776,1.361-4.273,1.769c-0.914-1.925-2.687-3.061-4.812-3.061C42.437,62.66,40.656,63.854,39.765,65.716z M44.476,44.159c-2.17,0-3.944,1.758-3.954,3.918c-0.01,2.174,1.756,3.951,3.936,3.962c2.158-0.013,3.891-1.692,3.952-3.824 c0.031-1.068-0.36-2.08-1.1-2.85c-0.739-0.768-1.731-1.195-2.796-1.206C44.511,44.159,44.478,44.159,44.476,44.159z"></path><path fill="#472b29" d="M49.647,31.324c1.053,0.32,2.075,0.743,3.056,1.262c-0.618,2.198-0.092,4.24,1.533,5.844 c1.174,1.16,2.537,1.748,4.051,1.748c0.575,0,1.165-0.088,1.765-0.262c0.427,0.837,0.957,2.107,1.255,3.048 c-2.027,1.145-3.064,2.96-3.015,5.31c0.033,1.592,0.608,3.656,2.98,5.009c-0.326,1.056-0.754,2.08-1.279,3.063 c-0.564-0.146-1.116-0.221-1.65-0.221c-1.685,0-3.213,0.743-4.419,2.149c-1.315,1.532-1.719,3.351-1.196,5.314 c-0.983,0.522-2.014,0.949-3.083,1.276c-1.09-1.853-2.959-2.931-5.165-2.931l-0.083,0c-2.05,0.026-3.91,1.155-4.983,2.955 c-1.068-0.319-2.104-0.741-3.096-1.261c0.553-2.16-0.002-4.163-1.618-5.734c-1.164-1.132-2.516-1.707-4.018-1.707 c-0.541,0-1.098,0.077-1.665,0.23c-0.53-0.979-0.963-2.001-1.293-3.055c1.975-1.151,3.018-2.992,2.964-5.288 c-0.052-2.197-1.119-3.942-3.035-5.019c0.315-1.058,0.731-2.083,1.243-3.064c0.59,0.166,1.168,0.25,1.73,0.25 c1.544,0,2.926-0.609,4.108-1.81c1.588-1.614,2.088-3.642,1.462-5.806c0.965-0.517,1.986-0.943,3.052-1.276 c1.112,1.983,2.901,3.059,5.142,3.059c0.179,0,0.363-0.007,0.55-0.021C47.012,34.233,48.648,33.159,49.647,31.324 M44.46,52.738 c0.003,0,0.006,0,0.009,0c2.53-0.014,4.568-1.992,4.64-4.504c0.036-1.258-0.424-2.449-1.295-3.355 c-0.87-0.903-2.04-1.408-3.339-1.42c-2.554,0-4.641,2.07-4.653,4.614c-0.006,1.242,0.473,2.411,1.349,3.292 c0.874,0.879,2.041,1.367,3.284,1.373C44.456,52.738,44.458,52.738,44.46,52.738 M48.851,29.662 c-0.671,1.953-1.974,3.177-4.016,3.328c-0.152,0.011-0.301,0.017-0.447,0.017c-2.167,0-3.593-1.229-4.371-3.325 c-1.986,0.486-3.836,1.253-5.552,2.328c0.945,1.995,0.822,3.86-0.731,5.439c-0.938,0.954-1.987,1.392-3.11,1.392 c-0.758,0-1.549-0.199-2.363-0.574c-1.052,1.731-1.808,3.584-2.261,5.568c2.019,0.741,3.236,2.125,3.287,4.273 c0.053,2.234-1.151,3.696-3.225,4.502c0.478,1.968,1.256,3.8,2.33,5.515c0.787-0.351,1.554-0.537,2.289-0.537 c1.094,0,2.119,0.413,3.042,1.31c1.573,1.53,1.763,3.378,0.894,5.376c1.732,1.053,3.575,1.807,5.547,2.262 c0.029-0.059,0.052-0.094,0.066-0.131c0.713-1.858,2.332-3.046,4.184-3.07c0.022,0,0.044,0,0.066,0c1.951,0,3.564,1.1,4.314,2.966 c0.056,0.138,0.116,0.182,0.204,0.182c0.043,0,0.092-0.01,0.15-0.025c1.784-0.451,3.467-1.146,5.048-2.088 c0.086-0.052,0.168-0.11,0.237-0.155c-0.804-1.812-0.73-3.531,0.554-5.028c0.975-1.136,2.109-1.66,3.357-1.66 c0.727,0,1.492,0.178,2.287,0.516c1.065-1.722,1.833-3.558,2.3-5.522c-1.989-0.762-3.194-2.125-3.239-4.274 c-0.047-2.266,1.179-3.701,3.233-4.497c-0.126-1.238-1.566-4.716-2.295-5.545c-0.802,0.375-1.587,0.575-2.342,0.575 c-1.1,0-2.136-0.424-3.068-1.344c-1.597-1.576-1.722-3.462-0.795-5.475C52.693,30.893,50.836,30.123,48.851,29.662L48.851,29.662z M44.461,51.338c-1.799-0.008-3.248-1.465-3.239-3.258c0.008-1.786,1.456-3.22,3.253-3.22c0.011,0,0.021,0,0.032,0 c1.81,0.017,3.255,1.518,3.203,3.334C47.661,49.883,46.288,51.329,44.461,51.338L44.461,51.338z"></path><path fill="#7777ab" d="M55.833,45.206c-1.598-6.277-7.983-10.071-14.26-8.473s-10.071,7.983-8.473,14.26 c1.598,6.277,7.983,10.071,14.26,8.473C53.637,57.868,57.431,51.483,55.833,45.206z M46.777,57.176 c-5.013,1.276-10.112-1.753-11.387-6.766c-1.276-5.013,1.753-10.112,6.766-11.387c5.013-1.276,10.112,1.753,11.387,6.766 C54.819,50.801,51.79,55.9,46.777,57.176z"></path><path fill="#472b29" d="M44.508 57.854c-4.251 0-8.135-2.871-9.231-7.176-1.296-5.089 1.791-10.284 6.88-11.579 5.084-1.296 10.284 1.79 11.579 6.88 1.296 5.089-1.791 10.284-6.88 11.579l0 0C46.072 57.758 45.284 57.854 44.508 57.854zM44.506 39.343c-.732 0-1.475.09-2.215.279-4.8 1.222-7.711 6.122-6.49 10.923 1.222 4.801 6.123 7.71 10.923 6.49l0 0c4.8-1.222 7.711-6.122 6.49-10.923C52.18 42.052 48.515 39.343 44.506 39.343zM46.79 57.297h.005H46.79zM33.371 44.437c-.03 0-.061-.005-.091-.016-.14-.051-.213-.205-.163-.346 1.359-3.784 4.494-6.634 8.384-7.624.148-.036.292.051.328.195.036.145-.051.291-.195.328-3.717.946-6.711 3.669-8.009 7.284C33.585 44.368 33.481 44.437 33.371 44.437z"></path><path fill="#472b29" d="M44.756 60.046c-1.214 0-2.45-.178-3.675-.542-4.178-1.241-7.28-4.374-8.297-8.381-.036-.145.051-.291.195-.328.148-.038.292.051.328.195.97 3.821 3.934 6.809 7.928 7.996 4.024 1.196 8.172.299 11.098-2.396.109-.101.28-.094.382.016.101.109.094.28-.016.382C50.524 58.989 47.709 60.046 44.756 60.046zM54.83 53.804c-.243.446-.515.877-.812 1.288"></path><path fill="#472b29" d="M54.018 55.362c-.056 0-.111-.016-.158-.051-.121-.088-.148-.256-.06-.377.289-.398.556-.822.794-1.259.072-.131.238-.177.366-.108.131.072.179.236.108.366-.249.457-.529.9-.83 1.318C54.184 55.323 54.102 55.362 54.018 55.362zM55.984 50.763c-.162.708-.389 1.4-.677 2.067"></path><path fill="#472b29" d="M55.307 53.1c-.036 0-.072-.007-.107-.022-.137-.059-.2-.218-.14-.355.281-.65.504-1.329.662-2.019.033-.146.177-.237.323-.203.146.033.237.178.203.323-.165.723-.398 1.434-.693 2.114C55.51 53.039 55.411 53.1 55.307 53.1zM55.91 45.506c-.121 0-.231-.081-.261-.204-.957-3.758-3.717-6.766-7.385-8.045-.141-.05-.216-.203-.167-.344.049-.142.205-.216.344-.167 3.84 1.339 6.729 4.488 7.73 8.423.036.145-.051.291-.195.328C55.955 45.503 55.932 45.506 55.91 45.506zM48.673 39.772L51.808 39.013"></path><path fill="#472b29" d="M48.672 40.042c-.123 0-.232-.083-.262-.207-.035-.145.054-.291.199-.326l3.136-.759c.146-.033.29.054.326.199.035.145-.054.291-.199.326l-3.136.759C48.714 40.039 48.693 40.042 48.672 40.042zM51.406 41.574L53.765 41.184M51.405 41.844c-.13 0-.244-.094-.266-.226-.025-.148.075-.286.222-.31l2.359-.39c.143-.028.286.075.31.222s-.075.286-.222.31l-2.359.39C51.435 41.843 51.42 41.844 51.405 41.844zM52.935 43.993L55.327 43.736M52.934 44.263c-.136 0-.253-.102-.268-.241-.016-.148.091-.281.24-.297l2.392-.258c.138-.017.281.09.297.24.016.148-.091.281-.24.297l-2.392.258C52.954 44.263 52.945 44.263 52.934 44.263zM39.986 37.384L40.222 39.575M40.222 39.844c-.136 0-.253-.102-.268-.241l-.236-2.189c-.016-.148.091-.281.24-.297.137-.015.281.091.297.24l.236 2.189c.016.148-.091.281-.24.297C40.241 39.844 40.232 39.844 40.222 39.844zM37.659 38.612L38.381 41.032M38.381 41.302c-.117 0-.224-.076-.259-.193l-.722-2.42c-.042-.143.039-.293.182-.336.143-.041.293.038.336.182l.722 2.42c.042.143-.039.293-.182.336C38.433 41.299 38.407 41.302 38.381 41.302zM35.324 40.751L36.747 42.858M36.747 43.128c-.087 0-.172-.041-.224-.119l-1.422-2.107c-.083-.124-.051-.291.073-.375.124-.084.291-.052.375.073l1.422 2.107c.083.124.051.291-.073.375C36.851 43.113 36.799 43.128 36.747 43.128zM33.625 52.561L36.052 52.435M33.625 52.831c-.143 0-.262-.112-.27-.256-.008-.149.106-.276.256-.284l2.426-.126c.166-.008.276.107.284.256.008.149-.106.276-.256.284l-2.426.126C33.635 52.831 33.63 52.831 33.625 52.831zM35.087 55.194L37.441 54.492M35.087 55.465c-.117 0-.224-.076-.259-.193-.042-.143.039-.293.182-.336l2.354-.702c.142-.041.293.039.336.182.042.143-.039.293-.182.336l-2.354.702C35.139 55.461 35.112 55.465 35.087 55.465z"></path><g><path fill="#472b29" d="M37.619 57.397L39.607 56.376M37.619 57.667c-.098 0-.193-.054-.24-.147-.068-.132-.016-.296.117-.364l1.987-1.021c.131-.067.295-.016.364.117.068.132.016.296-.117.364l-1.987 1.021C37.703 57.658 37.661 57.667 37.619 57.667z"></path></g><g><path fill="#472b29" d="M40.861 58.913L42.329 57.509M40.861 59.183c-.071 0-.142-.028-.195-.083-.103-.108-.1-.279.009-.382l1.468-1.404c.107-.103.279-.099.382.009.103.108.1.279-.009.382l-1.468 1.404C40.995 59.158 40.928 59.183 40.861 59.183z"></path></g><g><path fill="#472b29" d="M44.359 59.762L45.499 57.638M44.359 60.033c-.044 0-.087-.01-.127-.032-.131-.071-.181-.235-.111-.366l1.141-2.124c.071-.132.236-.181.366-.111.131.071.181.235.111.366l-1.141 2.124C44.548 59.981 44.455 60.033 44.359 60.033z"></path></g><g><path fill="#472b29" d="M48.134 59.155L48.313 56.922M48.135 59.425c-.008 0-.015-.001-.022-.001-.148-.011-.26-.142-.247-.291l.179-2.233c.011-.148.145-.258.291-.247.148.011.26.142.247.291l-.179 2.233C48.392 59.318 48.274 59.425 48.135 59.425z"></path></g><g><path fill="#472b29" d="M42.771 36.446c.719-.099 1.448-.13 2.173-.095M42.77 36.716c-.133 0-.248-.099-.267-.234-.02-.148.083-.284.231-.304.733-.101 1.48-.133 2.223-.097.149.007.264.133.256.283-.007.148-.113.276-.283.256-.708-.034-1.423-.003-2.122.093C42.795 36.715 42.783 36.716 42.77 36.716z"></path></g><g><path fill="#fffef4" d="M49.7,73.479c-2.467,0-4.474-2.007-4.474-4.474V52.386c0-2.467,2.007-4.474,4.474-4.474h22.177 c2.467,0,4.474,2.007,4.474,4.474v16.619c0,2.467-2.007,4.474-4.474,4.474H49.7z"></path></g><g><path fill="#472b29" d="M71.5,58h-14c-0.276,0-0.5-0.224-0.5-0.5s0.224-0.5,0.5-0.5h14c0.276,0,0.5,0.224,0.5,0.5 S71.776,58,71.5,58z"></path></g><g><path fill="#472b29" d="M65.5,61h-8c-0.276,0-0.5-0.224-0.5-0.5s0.224-0.5,0.5-0.5h8c0.276,0,0.5,0.224,0.5,0.5 S65.776,61,65.5,61z"></path></g><g><path fill="#472b29" d="M65.5,66h-8c-0.276,0-0.5-0.224-0.5-0.5s0.224-0.5,0.5-0.5h8c0.276,0,0.5,0.224,0.5,0.5 S65.776,66,65.5,66z"></path></g><g><path fill="#472b29" d="M71.5,66h-4c-0.276,0-0.5-0.224-0.5-0.5s0.224-0.5,0.5-0.5h4c0.276,0,0.5,0.224,0.5,0.5 S71.776,66,71.5,66z"></path></g><g><path fill="#472b29" d="M65.5,69h-8c-0.276,0-0.5-0.224-0.5-0.5s0.224-0.5,0.5-0.5h8c0.276,0,0.5,0.224,0.5,0.5 S65.776,69,65.5,69z"></path></g><g><path fill="#472b29" d="M51.358,62.308c-0.132,0-0.259-0.053-0.354-0.146l-2.223-2.224c-0.195-0.195-0.195-0.512,0-0.707 s0.512-0.195,0.707,0l1.815,1.815l2.989-3.985c0.166-0.22,0.479-0.266,0.7-0.101c0.221,0.166,0.266,0.479,0.1,0.7l-3.335,4.447 c-0.087,0.116-0.22,0.188-0.364,0.199C51.382,62.308,51.37,62.308,51.358,62.308z"></path></g><g><path fill="#472b29" d="M51.358,69.719c-0.132,0-0.259-0.053-0.354-0.146l-2.223-2.224c-0.195-0.195-0.195-0.512,0-0.707 s0.512-0.195,0.707,0l1.815,1.815l2.989-3.985c0.166-0.22,0.479-0.266,0.7-0.101c0.221,0.166,0.266,0.479,0.1,0.7l-3.335,4.447 c-0.087,0.116-0.22,0.188-0.364,0.199C51.382,69.719,51.37,69.719,51.358,69.719z"></path></g><g><path fill="#d6d3c5" d="M77,54v-2.08c0-2.572-2.294-4.657-5.123-4.657H49.7c-2.83,0-5.123,2.085-5.123,4.657V54H77z"></path></g><g><path fill="#472b29" d="M71.786,48.303c2.147,0,3.894,1.725,3.894,3.846v16.702c0,2.12-1.747,3.846-3.894,3.846H49.214 c-2.147,0-3.894-1.725-3.894-3.846V52.149c0-2.12,1.747-3.846,3.894-3.846H71.786 M71.786,47H49.214C46.335,47,44,49.305,44,52.149 v16.702C44,71.695,46.335,74,49.214,74h22.571C74.665,74,77,71.695,77,68.851V52.149C77,49.305,74.665,47,71.786,47L71.786,47z"></path></g><g><path fill="#472b29" d="M58.5,54h-14c-0.276,0-0.5-0.224-0.5-0.5s0.224-0.5,0.5-0.5h14c0.276,0,0.5,0.224,0.5,0.5 S58.776,54,58.5,54z"></path></g><g><path fill="#472b29" d="M65.5,54h-4c-0.276,0-0.5-0.224-0.5-0.5s0.224-0.5,0.5-0.5h4c0.276,0,0.5,0.224,0.5,0.5 S65.776,54,65.5,54z"></path></g><g><path fill="#472b29" d="M76.5,54h-8c-0.276,0-0.5-0.224-0.5-0.5s0.224-0.5,0.5-0.5h8c0.276,0,0.5,0.224,0.5,0.5 S76.776,54,76.5,54z"></path></g></svg>